<?xml version="1.0" standalone="no"?>
<!DOCTYPE svg PUBLIC "-//W3C//DTD SVG 20010904//EN"
 "http://www.w3.org/TR/2001/REC-SVG-20010904/DTD/svg10.dtd">
<svg version="1.0" xmlns="http://www.w3.org/2000/svg"
 width="480.000000pt" height="480.000000pt" viewBox="0 0 480.000000 480.000000"
 preserveAspectRatio="xMidYMid meet">

<g transform="translate(0.000000,480.000000) scale(0.100000,-0.100000)"
fill="#000000" stroke="none">
<path d="M2120 4620 c-14 -4 -42 -8 -62 -9 -20 -1 -40 -5 -43 -11 -3 -5 -24
-10 -45 -10 -21 0 -42 -4 -45 -10 -3 -5 -19 -10 -35 -10 -16 0 -32 -4 -35 -10
-3 -5 -14 -10 -25 -10 -10 0 -38 -10 -62 -21 -23 -12 -52 -25 -63 -29 -123
-47 -362 -182 -373 -212 -2 -4 -8 -8 -12 -8 -52 0 -329 -281 -380 -385 -8 -16
-24 -43 -36 -60 -11 -16 -38 -65 -58 -108 -23 -46 -42 -74 -48 -70 -7 4 -8 1
-3 -6 7 -12 1 -30 -26 -83 -5 -10 -9 -27 -9 -38 0 -11 -4 -20 -10 -20 -5 0
-10 -11 -10 -24 0 -14 -4 -28 -10 -31 -5 -3 -10 -19 -10 -35 0 -16 -4 -31 -9
-34 -9 -6 -15 -37 -27 -136 -3 -25 -10 -49 -15 -54 -13 -14 -12 -953 1 -961 6
-3 10 -28 10 -55 0 -27 5 -52 10 -55 6 -3 10 -24 10 -45 0 -21 5 -42 10 -45 6
-3 10 -21 10 -40 0 -19 5 -37 10 -40 6 -3 10 -19 10 -35 0 -16 4 -32 10 -35 6
-3 10 -17 10 -30 0 -13 5 -27 10 -30 6 -3 10 -17 10 -30 0 -13 5 -27 10 -30 6
-4 9 -12 8 -18 -1 -7 8 -39 20 -72 13 -33 32 -82 42 -110 10 -27 21 -59 25
-70 5 -11 9 -24 9 -30 2 -10 39 -91 77 -168 10 -22 19 -45 19 -53 0 -8 5 -14
10 -14 6 0 10 -8 10 -18 0 -10 5 -23 11 -29 7 -7 11 -60 10 -150 -2 -134 -1
-141 26 -188 30 -54 197 -225 219 -225 8 0 14 -4 14 -10 0 -5 8 -10 18 -10 11
0 26 -8 35 -18 10 -10 40 -29 67 -42 28 -13 50 -27 50 -32 0 -4 7 -8 15 -8 8
0 15 -4 15 -10 0 -5 7 -10 16 -10 8 0 40 -11 70 -25 30 -14 58 -25 63 -25 4 0
29 -11 55 -25 26 -14 65 -28 87 -31 22 -4 42 -11 45 -15 3 -5 20 -9 39 -9 19
0 36 -4 39 -9 3 -5 23 -11 43 -15 21 -3 65 -10 98 -16 219 -40 537 -32 765 19
25 5 59 13 75 16 17 4 40 11 53 16 12 5 34 14 50 20 15 6 35 15 44 20 10 5 25
9 33 9 8 0 23 4 33 9 19 10 68 31 122 51 19 8 46 21 60 30 14 9 41 24 61 33
20 9 42 23 49 32 7 8 19 15 26 15 8 0 14 5 14 10 0 6 5 10 11 10 6 0 23 10 38
23 15 12 43 33 61 47 44 32 97 88 118 123 9 15 20 27 24 27 4 0 8 9 8 19 0 11
4 21 9 23 6 2 11 71 13 153 l3 150 37 74 c21 41 38 82 38 92 0 11 5 19 10 19
6 0 10 6 10 14 0 8 6 27 14 43 25 48 56 122 56 133 0 10 4 20 33 76 9 17 19
50 23 73 4 23 11 44 15 47 5 3 9 16 9 29 0 13 4 27 10 30 5 3 10 15 10 26 0
10 4 27 9 37 15 31 31 88 31 115 0 14 4 28 9 31 5 3 11 23 14 43 3 21 10 61
15 88 6 28 15 77 21 110 13 72 13 799 0 925 -13 131 -20 174 -30 185 -5 5 -9
20 -9 32 0 13 -9 43 -20 65 -11 23 -20 50 -20 60 0 10 -4 18 -10 18 -5 0 -10
10 -10 23 0 25 -96 227 -114 239 -6 4 -7 8 -3 8 5 0 -7 22 -27 49 -20 26 -33
51 -29 55 3 3 1 6 -5 6 -7 0 -12 6 -12 13 0 6 -13 28 -28 47 -43 56 -282 290
-295 290 -7 0 -23 10 -37 21 -51 41 -137 96 -210 133 -104 54 -90 47 -242 115
-26 12 -54 21 -62 21 -8 0 -18 5 -21 10 -3 6 -19 10 -35 10 -16 0 -32 5 -35
10 -3 6 -23 10 -44 10 -20 0 -41 4 -47 9 -5 5 -31 12 -59 16 -74 10 -526 15
-555 5z m-965 -1660 c3 -5 19 -10 35 -10 16 0 32 -4 35 -10 3 -5 15 -10 26
-10 10 0 27 -4 37 -9 17 -9 61 -27 97 -41 11 -5 67 -25 125 -45 58 -20 116
-42 130 -50 14 -7 42 -16 63 -20 21 -4 41 -14 44 -21 3 -8 9 -11 15 -8 5 3 29
-4 53 -15 25 -12 52 -21 60 -21 8 0 24 -4 35 -10 11 -5 29 -14 40 -20 11 -5
29 -10 39 -10 11 0 23 -4 26 -10 3 -5 19 -10 35 -10 16 0 32 -4 35 -10 3 -5
19 -10 36 -10 16 0 29 -4 29 -10 0 -5 7 -10 16 -10 8 0 22 -6 29 -14 11 -11 6
-20 -32 -54 -25 -23 -49 -39 -54 -36 -5 3 -9 1 -9 -4 0 -19 -136 -92 -172 -92
-10 0 -16 -4 -13 -10 3 -5 -3 -10 -14 -10 -12 0 -21 -4 -21 -10 0 -5 -13 -10
-29 -10 -16 0 -31 -3 -33 -7 -5 -13 -88 -53 -108 -53 -11 0 -22 -4 -25 -10 -3
-5 -19 -10 -36 -10 -16 0 -29 -4 -29 -10 0 -6 -56 -10 -149 -10 -89 0 -152 4
-156 10 -3 6 -14 10 -23 10 -24 0 -142 59 -142 70 0 6 -6 10 -13 10 -24 0
-106 99 -143 173 -22 45 -38 94 -42 132 -9 81 -4 217 8 210 6 -4 10 6 10 20 0
18 6 29 20 32 11 3 20 9 20 14 0 5 11 9 25 9 14 0 25 5 25 10 0 6 20 10 44 10
25 0 48 -4 51 -10z m2535 0 c0 -5 11 -10 25 -10 31 0 78 -57 84 -102 7 -59 4
-162 -7 -213 -12 -58 -49 -134 -68 -142 -8 -3 -14 -12 -14 -21 0 -19 -88 -112
-106 -112 -6 0 -17 -7 -24 -15 -16 -19 -109 -65 -132 -65 -10 0 -18 -4 -18
-10 0 -6 -58 -10 -155 -10 -97 0 -155 4 -155 10 0 6 -13 10 -29 10 -17 0 -33
5 -36 10 -3 6 -17 10 -31 10 -13 0 -24 5 -24 10 0 6 -9 10 -20 10 -11 0 -20 5
-20 10 0 6 -7 10 -15 10 -8 0 -23 4 -33 9 -9 5 -42 19 -72 32 -30 13 -56 27
-58 32 -2 4 -12 7 -22 7 -10 0 -21 4 -24 8 -3 4 -31 21 -62 37 -32 16 -72 44
-91 62 -37 38 -44 73 -14 73 11 0 23 5 26 10 3 6 19 10 35 10 16 0 32 5 35 10
3 6 19 10 35 10 16 0 32 5 35 10 3 6 17 10 30 10 13 0 27 5 30 10 3 6 16 10
29 10 12 0 26 4 32 8 5 4 27 14 49 21 22 7 59 21 83 32 24 11 47 17 53 14 5
-4 12 1 15 9 3 9 16 16 28 16 13 0 26 3 30 7 12 12 78 32 91 27 7 -3 15 1 18
9 3 8 23 18 44 22 20 4 47 12 58 18 11 6 25 11 30 12 6 0 20 6 31 12 12 7 24
9 28 6 3 -3 6 -1 6 5 0 7 9 12 20 12 11 0 29 5 40 10 11 6 29 15 40 20 11 6
31 10 44 10 14 0 28 5 31 10 3 6 26 10 51 10 24 0 44 -4 44 -10z m-1060 -1335
c30 -4 59 -11 64 -16 6 -5 25 -9 42 -9 18 0 36 -4 39 -10 3 -5 14 -10 24 -10
60 0 199 -110 188 -149 -3 -13 0 -21 8 -21 18 0 41 -145 25 -155 -6 -3 -10
-19 -10 -36 0 -16 -4 -37 -9 -47 -5 -9 -15 -30 -22 -45 -18 -39 -51 -70 -101
-95 -42 -21 -53 -22 -503 -24 -422 -1 -463 0 -499 16 -47 21 -106 77 -106 100
0 9 -4 16 -10 16 -5 0 -10 13 -10 29 0 17 -4 33 -10 36 -5 3 -10 46 -10 95 0
49 5 92 10 95 6 3 10 13 10 21 0 20 43 84 57 84 6 0 13 4 15 8 6 14 66 52 82
52 9 0 16 5 16 11 0 8 12 10 34 6 28 -4 34 -3 29 9 -4 10 4 14 30 14 20 0 39
5 42 10 3 6 30 10 58 11 29 1 63 5 77 9 28 9 354 5 440 -5z"/>
</g>
</svg>
