<?xml version="1.0" encoding="utf-8"?><svg version="1.1" id="Layer_1" xmlns="http://www.w3.org/2000/svg" xmlns:xlink="http://www.w3.org/1999/xlink" x="0px" y="0px" viewBox="0 0 122.88 100.23" style="enable-background:new 0 0 122.88 100.23" xml:space="preserve"><style type="text/css">.st0{fill-rule:evenodd;clip-rule:evenodd;}</style><g><path class="st0" d="M53.2,53.36h-8.82l-1.27,4.39h-7.95l9.49-26.65h8.52l9.44,26.65h-8.15L53.2,53.36L53.2,53.36z M21.17,0h80.55 c5.82,0,11.12,2.38,14.95,6.22c3.84,3.84,6.22,9.13,6.22,14.95v57.9c0,5.82-2.38,11.11-6.22,14.95c-3.84,3.84-9.13,6.22-14.95,6.22 H21.17c-5.82,0-11.11-2.38-14.95-6.22C2.38,90.18,0,84.89,0,79.07v-57.9c0-5.82,2.38-11.12,6.22-14.95C10.05,2.38,15.34,0,21.17,0 L21.17,0z M101.71,4.56H21.17c-4.57,0-8.72,1.87-11.73,4.88c-3.01,3.01-4.88,7.16-4.88,11.73v50.05c0.79,2.97,2.36,5.63,4.47,7.74 c3.11,3.11,7.41,5.05,12.13,5.05h80.55c0.19,0,0.38,0,0.56-0.01l1.17-0.08c4.03-0.41,7.67-2.23,10.4-4.96 c2.11-2.11,3.68-4.77,4.47-7.74V21.17c0-4.56-1.87-8.72-4.88-11.73C110.43,6.43,106.28,4.56,101.71,4.56L101.71,4.56z M83.6,31.1 v7.33h3.84v5.43H83.6v6.84c0,0.82,0.08,1.36,0.22,1.63c0.23,0.41,0.63,0.61,1.21,0.61c0.52,0,1.24-0.16,2.17-0.47l0.52,5.12 c-1.73,0.4-3.34,0.6-4.85,0.6c-1.74,0-3.03-0.24-3.85-0.71c-0.82-0.47-1.43-1.19-1.83-2.15c-0.39-0.96-0.59-2.53-0.59-4.68v-6.79 h-2.57v-5.43h2.57v-3.54L83.6,31.1L83.6,31.1z M64.27,31.1h7v26.65h-7V31.1L64.27,31.1z M51.55,47.59l-2.75-9.58l-2.76,9.58H51.55 L51.55,47.59z"/></g></svg>