<?xml version="1.0" encoding="utf-8"?><svg version="1.1" id="Layer_1" xmlns="http://www.w3.org/2000/svg" xmlns:xlink="http://www.w3.org/1999/xlink" x="0px" y="0px" viewBox="0 0 122.88 119.59" style="enable-background:new 0 0 122.88 119.59" xml:space="preserve"><g><path d="M70.73,56.98h4.67c2.56,0,4.77,0.93,6.6,2.77c1.83,1.85,2.74,4.05,2.74,6.6c0,2.55-0.91,4.75-2.74,6.6 c-1.83,1.84-4.02,2.77-6.59,2.77c-2.54,0-4.73-0.91-6.57-2.74c-1.84-1.83-2.75-4.04-2.75-6.6v-4.67h-9.36v4.67 c0,2.53-0.91,4.71-2.74,6.56c-1.83,1.85-4.02,2.78-6.59,2.78c-2.52,0-4.7-0.91-6.55-2.73c-1.85-1.83-2.78-4.04-2.78-6.63 c0-2.57,0.93-4.78,2.77-6.61c1.84-1.84,4.02-2.75,6.57-2.75h4.67v-9.23H47.4c-2.55,0-4.73-0.91-6.57-2.75 c-1.84-1.83-2.77-4.03-2.77-6.61c0-2.57,0.91-4.78,2.75-6.61c1.84-1.84,4.03-2.75,6.57-2.75c2.54,0,4.73,0.91,6.57,2.74 c1.84,1.83,2.75,4.04,2.75,6.6v4.67h9.36v-4.67c0-2.56,0.91-4.77,2.75-6.6c1.84-1.83,4.04-2.74,6.57-2.74s4.73,0.91,6.57,2.75 c1.84,1.83,2.75,4.04,2.75,6.61c0,2.55-0.91,4.75-2.74,6.6c-1.83,1.84-4.04,2.77-6.6,2.77h-4.67V56.98L70.73,56.98z M5.44,84.98 c0.94,3.54,2.82,6.71,5.34,9.23c3.72,3.72,8.84,6.02,14.48,6.02h72.37c0.24,0,0.47,0,0.7-0.01l1.33-0.09 c4.83-0.48,9.18-2.66,12.44-5.92c2.52-2.52,4.4-5.7,5.34-9.24V25.26c0-5.45-2.23-10.4-5.82-13.99c-3.59-3.59-8.55-5.82-13.99-5.82 H25.25c-5.45,0-10.4,2.23-13.99,5.82c-3.59,3.59-5.82,8.55-5.82,13.99V84.98L5.44,84.98z M25.25,0h72.37 c6.95,0,13.26,2.84,17.84,7.42c4.58,4.58,7.42,10.89,7.42,17.84v69.08c0,6.95-2.84,13.26-7.42,17.84 c-4.58,4.58-10.89,7.42-17.84,7.42H25.25c-6.95,0-13.26-2.84-17.84-7.42C2.84,107.6,0,101.29,0,94.34V25.26 c0-6.95,2.84-13.26,7.42-17.84C11.99,2.84,18.31,0,25.25,0L25.25,0z M70.73,43.03h4.68c1.29,0,2.39-0.46,3.3-1.38 c0.91-0.93,1.38-2.01,1.38-3.27c0-1.26-0.46-2.35-1.38-3.27c-0.91-0.91-2.01-1.38-3.3-1.38c-1.28,0-2.39,0.45-3.3,1.37 c-0.91,0.91-1.38,2-1.38,3.28V43.03L70.73,43.03z M52.07,61.69h-4.68c-1.28,0-2.39,0.46-3.3,1.38c-0.92,0.93-1.38,2.01-1.38,3.27 c0,1.26,0.46,2.35,1.38,3.27c0.91,0.91,2.02,1.38,3.3,1.38c1.29,0,2.39-0.46,3.3-1.38c0.91-0.93,1.38-2.01,1.38-3.27V61.69 L52.07,61.69z M52.07,43.03v-4.65c0-1.26-0.46-2.35-1.39-3.27c-0.94-0.91-2.02-1.38-3.29-1.38c-1.25,0-2.33,0.45-3.27,1.36 c-0.94,0.89-1.41,1.99-1.41,3.29c0,1.28,0.46,2.37,1.38,3.28c0.91,0.91,2.02,1.37,3.3,1.37H52.07L52.07,43.03z M70.73,61.69v4.65 c0,1.28,0.46,2.37,1.39,3.28c0.94,0.91,2.02,1.37,3.29,1.37c1.27,0,2.36-0.45,3.29-1.37c0.93-0.91,1.39-2,1.39-3.28 c0-1.28-0.46-2.37-1.38-3.28c-0.91-0.91-2.01-1.37-3.3-1.37H70.73L70.73,61.69z M66.08,56.98v-9.23h-9.36v9.23H66.08L66.08,56.98z"/></g></svg>