<?xml version="1.0" encoding="utf-8"?><svg version="1.1" id="Layer_1" xmlns="http://www.w3.org/2000/svg" xmlns:xlink="http://www.w3.org/1999/xlink" x="0px" y="0px" viewBox="0 0 122.88 108.95" style="enable-background:new 0 0 122.88 108.95" xml:space="preserve"><style type="text/css">.st0{fill-rule:evenodd;clip-rule:evenodd;}</style><g><path class="st0" d="M30.81,33.8h12.58c2.47,0,4.48,0.36,6.01,1.07c1.52,0.71,2.79,1.73,3.79,3.06c0.99,1.34,1.72,2.88,2.16,4.65 c0.45,1.77,0.68,3.63,0.68,5.61c0,3.1-0.33,5.5-1,7.2c-0.66,1.71-1.59,3.14-2.77,4.29c-1.19,1.15-2.46,1.92-3.81,2.31 c-1.86,0.53-3.54,0.79-5.04,0.79H30.81V33.8L30.81,33.8z M4.95,77.41c0.86,3.23,2.57,6.12,4.86,8.42 c3.38,3.38,8.05,5.49,13.19,5.49h76.87c0.2,0,0.41,0,0.61-0.01l1.28-0.09c4.39-0.45,8.33-2.43,11.3-5.39c2.29-2.3,4-5.18,4.86-8.41 V23.01c0-4.96-2.03-9.47-5.31-12.75c-3.27-3.27-7.79-5.31-12.75-5.31H23.01c-4.96,0-9.48,2.03-12.75,5.3 c-3.27,3.27-5.3,7.79-5.3,12.75V77.41L4.95,77.41z M23.01,0h76.87c6.33,0,12.08,2.59,16.25,6.76c4.17,4.17,6.76,9.92,6.76,16.25 v62.93c0,6.33-2.59,12.08-6.76,16.25c-4.17,4.17-9.92,6.76-16.25,6.76H23.01c-6.33,0-12.08-2.59-16.25-6.76 C2.59,98.02,0,92.27,0,85.94V23.01c0-6.33,2.59-12.08,6.76-16.25C10.92,2.59,16.68,0,23.01,0L23.01,0z M84.46,33.8h7.61v28.97 h-7.61V33.8L84.46,33.8z M81.35,54.27H66.08c0.14,1.29,0.47,2.25,0.99,2.89c0.73,0.91,1.7,1.36,2.88,1.36 c0.75,0,1.47-0.2,2.14-0.59c0.41-0.25,0.86-0.69,1.33-1.32l7.5,0.73c-1.15,2.1-2.53,3.62-4.15,4.53c-1.62,0.92-3.95,1.38-6.98,1.38 c-2.63,0-4.7-0.39-6.21-1.18c-1.5-0.78-2.75-2.03-3.75-3.74c-0.99-1.71-1.49-3.72-1.49-6.03c0-3.28,0.99-5.95,2.98-7.98 c1.98-2.03,4.73-3.05,8.23-3.05c2.84,0,5.08,0.46,6.73,1.37c1.65,0.91,2.9,2.23,3.76,3.96c0.86,1.73,1.29,3.98,1.29,6.75V54.27 L81.35,54.27z M73.62,50.43c-0.15-1.56-0.55-2.68-1.19-3.36c-0.64-0.67-1.49-1.01-2.54-1.01c-1.21,0-2.18,0.51-2.91,1.53 c-0.46,0.63-0.75,1.58-0.88,2.84H73.62L73.62,50.43z M39.26,40.35v15.82h2.08c1.77,0,3.04-0.21,3.79-0.62 c0.75-0.42,1.33-1.14,1.76-2.17c0.43-1.04,0.64-2.71,0.64-5.03c0-3.07-0.47-5.17-1.42-6.3c-0.95-1.13-2.53-1.7-4.72-1.7H39.26 L39.26,40.35z"/></g></svg>