<?xml version="1.0" encoding="utf-8"?><svg version="1.1" id="Layer_1" xmlns="http://www.w3.org/2000/svg" xmlns:xlink="http://www.w3.org/1999/xlink" x="0px" y="0px" viewBox="0 0 122.88 72.42" style="enable-background:new 0 0 122.88 72.42" xml:space="preserve"><g><path d="M24.59,22.47h15.05v4.12h-9.41v3.07h8.72v3.93h-8.72v3.79h9.69v4.36H24.59V22.47L24.59,22.47z M15.29,0h92.29 c4.21,0,8.03,1.72,10.8,4.49c2.77,2.77,4.49,6.6,4.49,10.8v41.83c0,4.2-1.72,8.02-4.5,10.8c-2.77,2.77-6.6,4.5-10.8,4.5H15.29 c-4.2,0-8.03-1.72-10.8-4.5C1.72,65.16,0,61.33,0,57.13V15.29c0-4.21,1.72-8.03,4.49-10.8C7.26,1.72,11.09,0,15.29,0L15.29,0z M3.29,51.46C3.86,53.6,5,55.52,6.53,57.05c2.25,2.25,5.35,3.65,8.77,3.65h92.3c0.14,0,0.27,0,0.41-0.01l0.85-0.06 c2.91-0.3,5.54-1.61,7.51-3.58c1.53-1.53,2.66-3.45,3.23-5.59V15.29c0-3.29-1.35-6.29-3.53-8.47c-2.18-2.18-5.17-3.53-8.47-3.53 H15.29c-3.3,0-6.3,1.35-8.47,3.53C4.64,9,3.29,12,3.29,15.29V51.46L3.29,51.46z M42.63,27.77h4.71v2.27 c0.7-0.93,1.41-1.6,2.13-1.99c0.72-0.4,1.59-0.6,2.63-0.6c1.4,0,2.49,0.44,3.28,1.32c0.79,0.88,1.18,2.24,1.18,4.08v8.88h-5.09 v-7.68c0-0.88-0.15-1.5-0.46-1.86c-0.31-0.36-0.73-0.55-1.28-0.55c-0.61,0-1.1,0.25-1.48,0.74c-0.38,0.49-0.57,1.37-0.57,2.64v6.71 h-5.06V27.77L42.63,27.77z M65.69,22.47v5.3h2.77v3.93h-2.77v4.94c0,0.59,0.06,0.99,0.16,1.18c0.17,0.3,0.46,0.44,0.87,0.44 c0.37,0,0.89-0.11,1.57-0.34l0.37,3.7c-1.25,0.29-2.42,0.44-3.5,0.44c-1.26,0-2.19-0.17-2.78-0.51c-0.59-0.34-1.03-0.86-1.32-1.56 c-0.28-0.7-0.43-1.82-0.43-3.38v-4.91h-1.86v-3.93h1.86v-2.56L65.69,22.47L65.69,22.47z M85.52,36.08H75.37 c0.09,0.86,0.31,1.5,0.66,1.92c0.49,0.61,1.13,0.91,1.92,0.91c0.5,0,0.97-0.13,1.42-0.39c0.28-0.17,0.57-0.46,0.89-0.87l4.98,0.48 c-0.76,1.4-1.68,2.41-2.76,3.01c-1.08,0.61-2.62,0.91-4.64,0.91c-1.75,0-3.12-0.26-4.13-0.78c-1-0.52-1.83-1.35-2.49-2.48 c-0.66-1.14-0.99-2.47-0.99-4.01c0-2.18,0.66-3.95,1.98-5.3c1.32-1.35,3.15-2.03,5.47-2.03c1.89,0,3.38,0.31,4.47,0.91 c1.09,0.61,1.93,1.48,2.5,2.63c0.57,1.15,0.86,2.64,0.86,4.49V36.08L85.52,36.08z M80.38,33.52c-0.1-1.04-0.36-1.78-0.79-2.23 c-0.43-0.45-0.99-0.67-1.69-0.67c-0.81,0-1.45,0.34-1.93,1.02c-0.31,0.42-0.5,1.05-0.59,1.89H80.38L80.38,33.52z M87.89,27.77h4.74 v2.28c0.46-0.99,0.93-1.67,1.41-2.04c0.49-0.37,1.08-0.56,1.8-0.56c0.75,0,1.57,0.25,2.45,0.74l-1.57,3.8 c-0.6-0.26-1.07-0.39-1.42-0.39c-0.66,0-1.18,0.29-1.54,0.87c-0.52,0.82-0.78,2.34-0.78,4.58v4.69h-5.09V27.77L87.89,27.77z"/></g></svg>