<?xml version="1.0" encoding="utf-8"?><svg version="1.1" id="Layer_1" xmlns="http://www.w3.org/2000/svg" xmlns:xlink="http://www.w3.org/1999/xlink" x="0px" y="0px" viewBox="0 0 122.88 107.27" style="enable-background:new 0 0 122.88 107.27" xml:space="preserve"><g><path d="M22.48,0h77.92c6.15,0,11.75,2.53,15.82,6.6c4.11,4.11,6.67,9.8,6.67,16.06v61.96c0,6.26-2.55,11.94-6.67,16.06 c-4.07,4.07-9.67,6.6-15.82,6.6H22.48c-6.15,0-11.75-2.53-15.82-6.6C2.55,96.56,0,90.88,0,84.62V22.65 c0-6.26,2.55-11.95,6.66-16.06C10.73,2.53,16.33,0,22.48,0L22.48,0z M45.37,28.62h19.45c4.24,0,7.41,1,9.52,3.02 c2.11,2.02,3.16,4.89,3.16,8.61c0,3.82-1.15,6.82-3.45,8.97c-2.3,2.16-5.81,3.23-10.53,3.23h-6.41v14H45.37V28.62L45.37,28.62z M57.11,44.79h2.88c2.27,0,3.87-0.4,4.78-1.18c0.92-0.78,1.37-1.79,1.37-3.01c0-1.19-0.4-2.19-1.2-3.02 c-0.79-0.83-2.29-1.24-4.49-1.24h-3.35V44.79L57.11,44.79z M4.54,76.22c0.79,3.18,2.34,6.02,4.44,8.29 c3.09,3.33,7.35,5.4,12.05,5.4h80.83c0.19,0,0.38,0,0.57-0.01l1.15-0.08c4.01-0.44,7.62-2.39,10.33-5.31 c2.1-2.26,3.65-5.1,4.44-8.28V22.65c0-4.85-2-9.28-5.21-12.49c-3.26-3.26-7.76-5.28-12.73-5.28H22.48c-4.97,0-9.48,2.02-12.73,5.28 c-3.22,3.22-5.21,7.64-5.21,12.49V76.22L4.54,76.22z"/></g></svg>