<?xml version="1.0" encoding="utf-8"?><svg version="1.1" id="Layer_1" xmlns="http://www.w3.org/2000/svg" xmlns:xlink="http://www.w3.org/1999/xlink" x="0px" y="0px" viewBox="0 0 122.88 107.27" style="enable-background:new 0 0 122.88 107.27" xml:space="preserve"><g><path d="M22.48,0h77.92c6.15,0,11.75,2.53,15.82,6.6c4.11,4.11,6.67,9.8,6.67,16.06v61.96c0,6.26-2.55,11.94-6.67,16.06 c-4.07,4.07-9.67,6.6-15.82,6.6H22.48c-6.15,0-11.75-2.53-15.82-6.6C2.55,96.56,0,90.88,0,84.62V22.65 c0-6.26,2.55-11.95,6.66-16.06C10.73,2.53,16.33,0,22.48,0L22.48,0z M41.83,47.57c0-6.17,1.72-10.98,5.16-14.42 c3.44-3.44,8.24-5.16,14.38-5.16c6.3,0,11.15,1.69,14.56,5.06c3.41,3.38,5.11,8.12,5.11,14.21c0,4.42-0.74,8.04-2.23,10.87 c-1.49,2.83-3.65,5.03-6.46,6.61c-2.82,1.58-6.32,2.36-10.53,2.36c-4.26,0-7.79-0.68-10.6-2.03c-2.79-1.37-5.06-3.51-6.8-6.46 C42.71,55.67,41.83,51.99,41.83,47.57L41.83,47.57z M53.51,47.59c0,3.81,0.71,6.56,2.13,8.23c1.43,1.66,3.36,2.5,5.81,2.5 c2.51,0,4.47-0.82,5.84-2.45c1.38-1.64,2.07-4.56,2.07-8.8c0-3.56-0.72-6.16-2.16-7.79c-1.44-1.65-3.39-2.47-5.86-2.47 c-2.36,0-4.26,0.84-5.69,2.5C54.23,40.98,53.51,43.74,53.51,47.59L53.51,47.59z M4.54,76.22c0.79,3.18,2.34,6.02,4.44,8.29 c3.09,3.33,7.35,5.4,12.05,5.4h80.83c0.19,0,0.38,0,0.57-0.01l1.15-0.08c4.01-0.44,7.62-2.39,10.33-5.31 c2.1-2.26,3.65-5.1,4.44-8.28V22.65c0-4.85-2-9.28-5.21-12.49c-3.26-3.26-7.76-5.28-12.73-5.28H22.48c-4.97,0-9.48,2.02-12.73,5.28 c-3.22,3.22-5.21,7.64-5.21,12.49V76.22L4.54,76.22z"/></g></svg>